ffmpeg started on 2016-11-27 at 07:02:31
Report written to "Output/NVENCh264/results/ffmpeg/sintelllhq4500k.log"
Command line:
Tools/ffmpeg/ffmpeg -benchmark -y -i Input/y4m/sintel.y4m -c:v h264_nvenc -preset llhq -b:v 4500k -an Output/NVENCh264/encoded/sintelllhq4500k.mkv
ffmpeg version N-82227-gdb23fde Copyright (c) 2000-2016 the FFmpeg developers
  built with gcc 5.4.0 (Ubuntu 5.4.0-6ubuntu1~16.04.2) 20160609
  configuration: --prefix=/home/jaroslav/ffmpeg_build --pkg-config-flags=--static --extra-cflags=-I/home/jaroslav/ffmpeg_build/include --extra-ldflags=-L/home/jaroslav/ffmpeg_build/lib --bindir=/home/jaroslav/bin --enable-gpl --enable-libass --enable-libfdk-aac --enable-libfreetype --enable-libmp3lame --enable-libopus --enable-libtheora --enable-libvorbis --enable-libvpx --enable-libx264 --enable-libx265 --enable-nvenc --enable-libmfx --enable-libxvid --enable-libgsm --enable-libopencore-amrnb --enable-version3 --enable-nonfree
  libavutil      55. 35.100 / 55. 35.100
  libavcodec     57. 66.101 / 57. 66.101
  libavformat    57. 57.100 / 57. 57.100
  libavdevice    57.  2.100 / 57.  2.100
  libavfilter     6. 66.100 /  6. 66.100
  libswscale      4.  3.100 /  4.  3.100
  libswresample   2.  4.100 /  2.  4.100
  libpostproc    54.  2.100 / 54.  2.100
Input #0, yuv4mpegpipe, from 'Input/y4m/sintel.y4m':
  Duration: 00:00:20.83, start: 0.000000, bitrate: 2057307 kb/s
    Stream #0:0: Video: rawvideo (I420 / 0x30323449), yuv420p(progressive), 4096x1744, SAR 1:1 DAR 256:109, 24 fps, 24 tbr, 24 tbn, 24 tbc
[h264_nvenc @ 0x2e921c0] The variable bitrate rate-control requires the 'qmin' and/or 'qmax' option set.
Output #0, matroska, to 'Output/NVENCh264/encoded/sintelllhq4500k.mkv':
  Metadata:
    encoder         : Lavf57.57.100
    Stream #0:0: Video: h264 (h264_nvenc) (Main) (H264 / 0x34363248), yuv420p, 4096x1744 [SAR 1:1 DAR 256:109], q=-1--1, 4500 kb/s, 24 fps, 1k tbn, 24 tbc
    Metadata:
      encoder         : Lavc57.66.101 h264_nvenc
    Side data:
      cpb: bitrate max/min/avg: 0/0/4500000 buffer size: 9000000 vbv_delay: -1
Stream mapping:
  Stream #0:0 -> #0:0 (rawvideo (native) -> h264 (h264_nvenc))
Press [q] to stop, [?] for help
frame=    3 fps=2.0 q=0.0 size=       0kB time=00:00:00.00 bitrate=N/A speed=   0x    frame=   24 fps= 12 q=0.0 size=       0kB time=00:00:00.00 bitrate=N/A speed=   0x    frame=   45 fps= 18 q=43.0 size=       1kB time=00:00:00.58 bitrate=  10.2kbits/s speed=0.229x    frame=   66 fps= 22 q=42.0 size=       1kB time=00:00:01.45 bitrate=   4.1kbits/s speed=0.478x    frame=   87 fps= 24 q=42.0 size=       1kB time=00:00:02.33 bitrate=   2.6kbits/s speed=0.656x    frame=  108 fps= 27 q=40.0 size=       1kB time=00:00:03.20 bitrate=   1.9kbits/s speed=0.789x    frame=  129 fps= 28 q=39.0 size=       1kB time=00:00:04.08 bitrate=   1.5kbits/s speed=0.892x    frame=  150 fps= 29 q=40.0 size=    2529kB time=00:00:04.95 bitrate=4177.6kbits/s speed=0.972x    frame=  171 fps= 30 q=40.0 size=    2529kB time=00:00:05.83 bitrate=3551.1kbits/s speed=1.04x    frame=  192 fps= 31 q=40.0 size=    2529kB time=00:00:06.70 bitrate=3087.9kbits/s speed= 1.1x    frame=  197 fps= 20 q=39.0 size=    2529kB time=00:00:06.91 bitrate=2994.6kbits/s speed=0.691x    frame=  198 fps= 19 q=39.0 size=    2529kB time=00:00:06.95 bitrate=2977.0kbits/s speed=0.655x    frame=  219 fps= 20 q=39.0 size=    2529kB time=00:00:07.83 bitrate=2644.5kbits/s speed=0.703x    frame=  240 fps= 21 q=39.0 size=    2529kB time=00:00:08.70 bitrate=2378.8kbits/s speed=0.748x    frame=  261 fps= 21 q=38.0 size=    2529kB time=00:00:09.58 bitrate=2161.6kbits/s speed=0.788x    frame=  282 fps= 22 q=36.0 size=    5301kB time=00:00:10.45 bitrate=4151.9kbits/s speed=0.825x    frame=  303 fps= 23 q=38.0 size=    5975kB time=00:00:11.33 bitrate=4318.9kbits/s speed=0.86x    frame=  324 fps= 24 q=36.0 size=    5975kB time=00:00:12.20 bitrate=4009.3kbits/s speed=0.891x    frame=  345 fps= 24 q=30.0 size=    5975kB time=00:00:13.08 bitrate=3741.2kbits/s speed=0.921x    frame=  366 fps= 25 q=32.0 size=    5975kB time=00:00:13.95 bitrate=3506.7kbits/s speed=0.949x    frame=  387 fps= 25 q=31.0 size=    5975kB time=00:00:14.83 bitrate=3299.9kbits/s speed=0.975x    frame=  408 fps= 26 q=34.0 size=    5975kB time=00:00:15.70 bitrate=3116.1kbits/s speed=0.999x    frame=  429 fps= 26 q=36.0 size=    8739kB time=00:00:16.58 bitrate=4317.0kbits/s speed=1.02x    frame=  450 fps= 27 q=37.0 size=    9482kB time=00:00:17.45 bitrate=4449.0kbits/s speed=1.04x    frame=  469 fps= 27 q=35.0 size=    9482kB time=00:00:18.25 bitrate=4256.0kbits/s speed=1.04x    frame=  490 fps= 27 q=33.0 size=    9482kB time=00:00:19.12 bitrate=4061.3kbits/s speed=1.06x    frame=  500 fps= 27 q=34.0 Lsize=   11381kB time=00:00:20.79 bitrate=4483.8kbits/s speed=1.14x    
video:11376kB audio:0kB subtitle:0kB other streams:0kB global headers:0kB muxing overhead: 0.042175%
bench: utime=0.892s
bench: maxrss=1191484kB
